<svg width="10" height="10" viewBox="0 0 10 10" fill="none" xmlns="http://www.w3.org/2000/svg">
<path d="M8.96954 3.65488C9.23258 3.39068 9.23258 2.96234 8.96954 2.69815C8.70646 2.43395 8.27991 2.43395 8.01683 2.69815L5.00012 5.72771L1.98348 2.69822C1.72041 2.43403 1.29388 2.43403 1.03081 2.69822C0.767726 2.96241 0.767726 3.39076 1.03081 3.65495L4.514 7.15296C4.51716 7.15629 4.52041 7.15958 4.52371 7.16288C4.61 7.24958 4.71391 7.30783 4.82391 7.33763C4.82658 7.33838 4.82929 7.33908 4.832 7.33975C5.05516 7.39733 5.30191 7.33842 5.47662 7.16296C5.48096 7.15863 5.48521 7.15425 5.48941 7.14983L8.96954 3.65488Z" fill="#202224"/>
</svg>
