<svg width="16" height="16" viewBox="0 0 16 16" fill="none" xmlns="http://www.w3.org/2000/svg">
<path d="M3.529 4.47142L7.05766 8.00009L3.529 11.5288C3.26833 11.7894 3.26833 12.2114 3.529 12.4714C3.78966 12.7314 4.21166 12.7321 4.47166 12.4714L8.00033 8.94275L11.529 12.4714C11.7897 12.7321 12.2117 12.7321 12.4717 12.4714C12.7317 12.2108 12.7323 11.7888 12.4717 11.5288L8.943 8.00009L12.4717 4.47142C12.7323 4.21075 12.7323 3.78875 12.4717 3.52875C12.211 3.26875 11.789 3.26809 11.529 3.52875L8.00033 7.05742L4.47166 3.52875C4.211 3.26809 3.789 3.26809 3.529 3.52875C3.269 3.78942 3.26833 4.21142 3.529 4.47142Z" fill="black"/>
</svg>
