<svg width="20" height="20" viewBox="0 0 20 20" fill="none" xmlns="http://www.w3.org/2000/svg">
<g clip-path="url(#clip0_1345_84)">
<path d="M9.99984 1.66663C14.6023 1.66663 18.3332 5.39746 18.3332 9.99996C18.3332 14.6025 14.6023 18.3333 9.99984 18.3333C5.39734 18.3333 1.6665 14.6025 1.6665 9.99996C1.6665 5.39746 5.39734 1.66663 9.99984 1.66663ZM7.93567 10.8333C8.01067 12.485 8.30067 13.9383 8.714 15.0016C8.95567 15.6233 9.224 16.07 9.47817 16.3466C9.7315 16.6225 9.909 16.6666 9.99984 16.6666C10.0907 16.6666 10.2682 16.6225 10.5215 16.3466C10.7757 16.07 11.044 15.6233 11.2857 15.0016C11.699 13.9383 11.9898 12.485 12.064 10.8333H7.93567ZM3.3865 10.8333C3.53201 11.9892 3.97789 13.0868 4.67971 14.0167C5.38154 14.9466 6.3148 15.6764 7.3865 16.1333C7.30519 15.9601 7.22987 15.7842 7.16067 15.6058C6.6615 14.3225 6.3415 12.6575 6.2665 10.8333H3.3865ZM13.7332 10.8333C13.6582 12.6575 13.3382 14.3225 12.839 15.6058C12.7684 15.788 12.6932 15.9638 12.6132 16.1333C13.6849 15.6764 14.6181 14.9466 15.32 14.0167C16.0218 13.0868 16.4677 11.9892 16.6132 10.8333H13.7332ZM12.6132 3.86579C12.6932 4.03579 12.7684 4.2119 12.839 4.39413C13.3382 5.67746 13.6573 7.34246 13.7332 9.16663H16.6132C16.4678 8.01057 16.022 6.91279 15.3202 5.98272C14.6183 5.05265 13.685 4.32275 12.6132 3.86579ZM9.99984 3.33329C9.909 3.33329 9.7315 3.37746 9.47817 3.65329C9.224 3.92996 8.95567 4.37663 8.714 4.99829C8.30067 6.06163 8.01067 7.51496 7.93567 9.16663H12.064C11.989 7.51496 11.699 6.06163 11.2857 4.99829C11.044 4.37663 10.7757 3.92996 10.5215 3.65329C10.2682 3.37746 10.0907 3.33329 9.99984 3.33329ZM7.38567 3.86579C6.31401 4.32287 5.38084 5.05281 4.67916 5.98288C3.97748 6.91294 3.53179 8.01066 3.3865 9.16663H6.26734C6.34234 7.34246 6.6615 5.67746 7.16067 4.39413C7.23123 4.2119 7.30623 4.03579 7.38567 3.86579Z" fill="#09244B"/>
</g>
<defs>
<clipPath id="clip0_1345_84">
<rect width="20" height="20" fill="white"/>
</clipPath>
</defs>
</svg>
