<svg width="20" height="20" viewBox="0 0 20 20" fill="none" xmlns="http://www.w3.org/2000/svg">
<g clip-path="url(#clip0_1345_76)">
<path d="M5.26253 5.14663C5.05419 4.61496 5.06253 4.00746 5.15503 3.45163C5.79185 3.64244 6.38994 3.9443 6.92169 4.34329C7.15503 4.52163 7.46086 4.57913 7.74586 4.49329C8.47717 4.27449 9.23669 4.16443 10 4.16663C10.8009 4.16663 11.5617 4.28329 12.2525 4.49246C12.5375 4.57913 12.8434 4.52079 13.0759 4.34246C13.6074 3.94356 14.2052 3.6417 14.8417 3.45079C14.9342 4.00663 14.9417 4.61413 14.735 5.14496C14.61 5.46496 14.6725 5.83329 14.9084 6.09496C15.5117 6.76413 15.8334 7.53329 15.8334 8.33329C15.8334 10.095 14.1917 11.8225 11.555 12.3483C10.895 12.48 10.6375 13.3108 11.1425 13.7866C11.4667 14.0916 11.6667 14.5216 11.6667 15V17.5C11.6667 17.721 11.7545 17.9329 11.9108 18.0892C12.0671 18.2455 12.279 18.3333 12.5 18.3333C12.721 18.3333 12.933 18.2455 13.0893 18.0892C13.2456 17.9329 13.3334 17.721 13.3334 17.5V15C13.3334 14.525 13.2334 14.0733 13.055 13.6641C15.5692 12.7916 17.5 10.8275 17.5 8.33329C17.5 7.21079 17.0967 6.17913 16.4275 5.31496C16.6025 4.63163 16.5867 3.94329 16.52 3.41496C16.4609 2.94163 16.3784 2.32163 16.045 1.95163C15.5492 1.40246 14.7284 1.72579 14.145 1.92496C13.5193 2.1367 12.9239 2.42947 12.3742 2.79579C11.5984 2.59781 10.8007 2.49841 10 2.49996C9.17169 2.49996 8.37253 2.60413 7.6242 2.79663C7.07446 2.43029 6.47912 2.13753 5.85336 1.92579C5.27003 1.72579 4.44836 1.40246 3.95253 1.95163C3.61253 2.32829 3.54169 2.89913 3.48086 3.38413L3.47669 3.41579C3.41003 3.94496 3.39503 4.63413 3.57003 5.31829C2.90336 6.18163 2.50003 7.21163 2.50003 8.33329C2.50003 10.8266 4.43086 12.7916 6.94503 13.6641C6.76305 14.0802 6.66832 14.5292 6.6667 14.9833L6.52669 15.0116C5.92919 15.0941 5.54669 15.02 5.28669 14.91C4.65336 14.6416 4.3267 13.9658 3.92836 13.4491C3.68003 13.1283 3.31836 12.7275 2.76336 12.5425C2.65951 12.5079 2.54986 12.4941 2.44068 12.5019C2.3315 12.5097 2.22492 12.5389 2.12703 12.5879C1.92933 12.6868 1.77904 12.8602 1.7092 13.07C1.63935 13.2797 1.65569 13.5086 1.75462 13.7063C1.85355 13.904 2.02695 14.0543 2.23669 14.1241C2.70169 14.2791 3.02336 15.0758 3.31836 15.4291C3.62919 15.8025 4.04253 16.1925 4.63503 16.4441C5.20336 16.6858 5.87086 16.7716 6.6667 16.6741V17.5C6.6667 17.721 6.75449 17.9329 6.91077 18.0892C7.06705 18.2455 7.27901 18.3333 7.50003 18.3333C7.72104 18.3333 7.933 18.2455 8.08928 18.0892C8.24556 17.9329 8.33336 17.721 8.33336 17.5V15C8.33336 14.5216 8.53336 14.0916 8.85753 13.7866C9.36336 13.31 9.10503 12.48 8.44503 12.3483C5.80753 11.8225 4.16669 10.095 4.16669 8.33329C4.16669 7.53496 4.48753 6.76579 5.09003 6.09663C5.32586 5.83496 5.38753 5.46663 5.26253 5.14663Z" fill="#09244B"/>
</g>
<defs>
<clipPath id="clip0_1345_76">
<rect width="20" height="20" fill="white"/>
</clipPath>
</defs>
</svg>
