<svg width="20" height="20" viewBox="0 0 20 20" fill="none" xmlns="http://www.w3.org/2000/svg">
<g clip-path="url(#clip0_1345_80)">
<path fill-rule="evenodd" clip-rule="evenodd" d="M16.4608 3.8825C16.5329 3.8001 16.588 3.7043 16.6231 3.60059C16.6581 3.49689 16.6724 3.38729 16.6651 3.27807C16.6578 3.16884 16.629 3.06213 16.5804 2.96401C16.5319 2.8659 16.4645 2.77831 16.3821 2.70625C16.2997 2.63419 16.2039 2.57906 16.1002 2.54402C15.9965 2.50898 15.8869 2.4947 15.7776 2.50202C15.6684 2.50933 15.5617 2.53808 15.4636 2.58664C15.3655 2.63519 15.2779 2.7026 15.2058 2.785L10.9475 7.65167L7.33333 2.83333C7.25571 2.72984 7.15506 2.64583 7.03934 2.58798C6.92363 2.53012 6.79604 2.5 6.66667 2.5H3.33333C3.17857 2.5 3.02687 2.5431 2.89522 2.62446C2.76358 2.70582 2.65719 2.82223 2.58798 2.96066C2.51877 3.09908 2.48947 3.25404 2.50337 3.40817C2.51727 3.56231 2.57381 3.70953 2.66667 3.83333L8.03083 10.985L3.53917 16.1183C3.4671 16.2007 3.41198 16.2965 3.37693 16.4002C3.34189 16.5039 3.32762 16.6135 3.33493 16.7228C3.34225 16.832 3.371 16.9387 3.41955 17.0368C3.46811 17.1349 3.53551 17.2225 3.61792 17.2946C3.70032 17.3666 3.79611 17.4218 3.89982 17.4568C4.00353 17.4919 4.11313 17.5061 4.22235 17.4988C4.33158 17.4915 4.43829 17.4628 4.5364 17.4142C4.63452 17.3656 4.7221 17.2982 4.79417 17.2158L9.0525 12.3483L12.6667 17.1667C12.7443 17.2702 12.8449 17.3542 12.9607 17.412C13.0764 17.4699 13.204 17.5 13.3333 17.5H16.6667C16.8214 17.5 16.9731 17.4569 17.1048 17.3755C17.2364 17.2942 17.3428 17.1778 17.412 17.0393C17.4812 16.9009 17.5105 16.746 17.4966 16.5918C17.4827 16.4377 17.4262 16.2905 17.3333 16.1667L11.9692 9.015L16.4608 3.8825ZM13.75 15.8333L5 4.16667H6.25L15 15.8333H13.75Z" fill="#09244B"/>
</g>
<defs>
<clipPath id="clip0_1345_80">
<rect width="20" height="20" fill="white"/>
</clipPath>
</defs>
</svg>
